<?xml version="1.0" encoding="UTF-8" standalone="no"?>
<svg
   xmlns:dc="http://purl.org/dc/elements/1.1/"
   xmlns:cc="http://creativecommons.org/ns#"
   xmlns:rdf="http://www.w3.org/1999/02/22-rdf-syntax-ns#"
   xmlns:svg="http://www.w3.org/2000/svg"
   xmlns="http://www.w3.org/2000/svg"
   xmlns:sodipodi="http://sodipodi.sourceforge.net/DTD/sodipodi-0.dtd"
   xmlns:inkscape="http://www.inkscape.org/namespaces/inkscape"
   viewBox="0 0 18 7"
   version="1.1"
   id="svg6"
   sodipodi:docname="fpm-logo.svg"
   inkscape:version="0.92.2 (5c3e80d, 2017-08-06)">
  <metadata
     id="metadata12">
    <rdf:RDF>
      <cc:Work
         rdf:about="">
        <dc:format>image/svg+xml</dc:format>
        <dc:type
           rdf:resource="http://purl.org/dc/dcmitype/StillImage" />
      </cc:Work>
    </rdf:RDF>
  </metadata>
  <defs
     id="defs10" />
  <sodipodi:namedview
     pagecolor="#ffffff"
     bordercolor="#666666"
     borderopacity="1"
     objecttolerance="10"
     gridtolerance="10"
     guidetolerance="10"
     inkscape:pageopacity="0"
     inkscape:pageshadow="2"
     inkscape:window-width="1920"
     inkscape:window-height="1017"
     id="namedview8"
     showgrid="false"
     inkscape:zoom="49.34034"
     inkscape:cx="6.1454256"
     inkscape:cy="2.424758"
     inkscape:window-x="-8"
     inkscape:window-y="-8"
     inkscape:window-maximized="1"
     inkscape:current-layer="svg6" />
  <path
     d="M0 0v6h5v1h4V6h9V0"
     id="path2"
     fill="#CB3837"
     style="fill:#0044aa" />
  <path
     d="M 6,1 V 6 H 8 V 2 H 9 V 4 H 8 v 1 h 2 V 1 h 1 v 4 h 2 V 2 h 1 v 3 h 1 V 2 h 1 v 3 h 1 V 1"
     id="path4"
     inkscape:connector-curvature="0"
     style="fill:#ffffff"
     sodipodi:nodetypes="cccccccccccccccccccccc" />
  <path
     id="path4511"
     d="m 1,-19 v 4 h 2 v -3 h 1 v 3 h 1 v -4 h 1 v 5 h 2 v -4 h 1 v 2 H 8 v 1 h 2 v -4 h 1 v 4 h 2 v -3 h 1 v 3 h 1 v -3 h 1 v 3 h 1 v -4"
     inkscape:connector-curvature="0"
     style="fill:#ffffff" />
  <path
     style="fill:#ffffff"
     d="M 1,5 H 3 V 4 H 5 V 3 H 3 V 2 H 5 V 1 H 1 Z"
     id="path4513"
     inkscape:connector-curvature="0"
     sodipodi:nodetypes="ccccccccccc" />
</svg>
