<?xml version="1.0" encoding="UTF-8" standalone="no"?>
<svg
   xmlns:dc="http://purl.org/dc/elements/1.1/"
   xmlns:cc="http://creativecommons.org/ns#"
   xmlns:rdf="http://www.w3.org/1999/02/22-rdf-syntax-ns#"
   xmlns:svg="http://www.w3.org/2000/svg"
   xmlns="http://www.w3.org/2000/svg"
   xmlns:sodipodi="http://sodipodi.sourceforge.net/DTD/sodipodi-0.dtd"
   xmlns:inkscape="http://www.inkscape.org/namespaces/inkscape"
   viewBox="0 0 18 7"
   version="1.1"
   id="svg6"
   sodipodi:docname="fpm-logo.svg"
   inkscape:version="0.91 r13725">
  <metadata
     id="metadata12">
    <rdf:RDF>
      <cc:Work
         rdf:about="">
        <dc:format>image/svg+xml</dc:format>
        <dc:type
           rdf:resource="http://purl.org/dc/dcmitype/StillImage" />
        <dc:title></dc:title>
      </cc:Work>
    </rdf:RDF>
  </metadata>
  <defs
     id="defs10" />
  <sodipodi:namedview
     pagecolor="#ffffff"
     bordercolor="#666666"
     borderopacity="1"
     objecttolerance="10"
     gridtolerance="10"
     guidetolerance="10"
     inkscape:pageopacity="0"
     inkscape:pageshadow="2"
     inkscape:window-width="1440"
     inkscape:window-height="787"
     id="namedview8"
     showgrid="false"
     inkscape:zoom="49.34034"
     inkscape:cx="9.2031311"
     inkscape:cy="-2.439416"
     inkscape:window-x="0"
     inkscape:window-y="480"
     inkscape:window-maximized="0"
     inkscape:current-layer="svg6" />
  <path
     d="M0 0v6h5v1h4V6h9V0"
     id="path2"
     fill="#CB3837"
     style="fill:#0044aa"
     inkscape:export-xdpi="1007.73"
     inkscape:export-ydpi="1007.73" />
  <path
     style="fill:#ffffff"
     d="M 1 1 L 1 5 L 3 5 L 3 4 L 5 4 L 5 3 L 3 3 L 3 2 L 5 2 L 5 1 L 1 1 z M 6 1 L 6 6 L 8 6 L 8 5 L 10 5 L 10 1 L 6 1 z M 11 1 L 11 5 L 13 5 L 13 2 L 14 2 L 14 5 L 15 5 L 15 2 L 16 2 L 16 5 L 17 5 L 17 1 L 11 1 z M 8 2 L 9 2 L 9 4 L 8 4 L 8 2 z "
     id="path4" />
  <path
     id="path4511"
     d="m 1,-19 v 4 h 2 v -3 h 1 v 3 h 1 v -4 h 1 v 5 h 2 v -4 h 1 v 2 H 8 v 1 h 2 v -4 h 1 v 4 h 2 v -3 h 1 v 3 h 1 v -3 h 1 v 3 h 1 v -4"
     inkscape:connector-curvature="0"
     style="fill:#ffffff" />
  <path
     style="fill:#0044aa"
     d="m 0,8 0,6 5,0 0,-0.905135 1,0 L 6,8 Z"
     id="path4137"
     inkscape:connector-curvature="0"
     sodipodi:nodetypes="ccccccc"
     inkscape:export-xdpi="1920"
     inkscape:export-ydpi="1920" />
  <path
     style="fill:#ffffff"
     d="M 1 9 L 1 13 L 3 13 L 3 12 L 5 12 L 5 11 L 3 11 L 3 10 L 5 10 L 5 9 L 1 9 z "
     id="path4139" />
</svg>
